<svg width="39" height="48" viewBox="0 0 39 48" fill="none" xmlns="http://www.w3.org/2000/svg" >
<path fill-rule="evenodd" clip-rule="evenodd" d="M26.7828 2.00815C24.7641 0.752055 22.3807 0.0265853 19.8276 0.0265853C13.0051 0.0265853 7.39522 5.20675 6.71562 11.8494C4.6131 11.3419 3.05198 9.44883 3.05198 7.19006C3.05198 4.54221 5.19724 2.39695 7.84509 2.39695C8.16916 2.39695 8.48645 2.42902 8.79556 2.49237C9.44388 2.62526 10.0772 2.20742 10.21 1.55911C10.3429 0.9108 9.92509 0.277516 9.27678 0.144632C8.80902 0.0487568 8.33051 0.0004 7.84509 0.0004C3.87366 0.0004 0.65543 3.21863 0.65543 7.19006C0.65543 10.7683 3.268 13.7351 6.69013 14.2875C7.23941 21.0619 12.9109 26.3887 19.8276 26.3887C23.7514 26.3887 27.2745 24.6743 29.689 21.9539C33.9988 24.6934 36.6034 29.0625 36.6034 33.8V44.3376C36.6034 45.0011 36.0687 45.5359 35.4051 45.5359H4.24998C3.58648 45.5359 3.0517 45.0011 3.0517 44.3376V33.8C3.0517 30.1387 4.59749 26.6841 7.35874 24.0049C7.8337 23.5441 7.84514 22.7855 7.3843 22.3105C6.92346 21.8355 6.16484 21.8241 5.68988 22.2849C2.47553 25.4037 0.655151 29.472 0.655151 33.8V44.3376C0.655151 46.3247 2.2629 47.9325 4.24998 47.9325H35.4051C37.3922 47.9325 39 46.3247 39 44.3376V33.8C39 28.2605 36.0078 23.1906 31.1137 20.0206C32.1403 18.3234 32.795 16.3761 32.9647 14.2915C36.3822 13.7517 38.9545 10.7861 38.9545 7.18966C38.9545 3.21987 35.7355 0 31.7648 0C29.8749 0 28.103 0.73767 26.7828 2.00815ZM28.7272 3.48356C31.0465 5.60733 32.6033 8.55021 32.94 11.8547C35.0284 11.3578 36.5579 9.47187 36.5579 7.18966C36.5579 4.5433 34.4118 2.39655 31.7648 2.39655C30.6354 2.39655 29.5702 2.79107 28.7272 3.48356ZM19.8276 2.42314C25.7851 2.42314 30.6121 7.25014 30.6121 13.2076C30.6121 19.1636 25.7842 23.9921 19.8276 23.9921C14.2629 23.9921 9.6833 19.7781 9.10474 14.3676C15.0474 14.2427 18.4589 13.1687 21.8868 10.0213C23.1556 11.9229 24.913 13.1772 27.5092 13.1772C28.171 13.1772 28.7075 12.6407 28.7075 11.9789C28.7075 11.3171 28.171 10.7806 27.5092 10.7806C25.644 10.7806 24.4185 9.72128 23.4957 8.05703C22.9409 7.06875 21.6119 6.94416 20.843 7.70472C17.6951 10.8257 14.8099 11.8481 9.1132 11.9708C9.72649 6.59611 14.2884 2.42314 19.8276 2.42314Z" fill="white"/>
</svg>
