<svg width="39" height="48" viewBox="0 0 39 48" fill="none" xmlns="http://www.w3.org/2000/svg">
<path fill-rule="evenodd" clip-rule="evenodd" d="M30.4581 19.9938C31.6608 18.0056 32.3529 15.6741 32.3529 13.181C32.3529 5.89997 26.453 0 19.1719 0C12.3122 0 6.67836 5.23686 6.04927 11.9317C5.6223 11.9347 5.18185 11.936 4.72721 11.936C4.06542 11.936 3.52893 12.4725 3.52893 13.1343C3.52893 13.7961 4.06542 14.3326 4.72721 14.3326C5.17716 14.3326 5.61459 14.3311 6.04008 14.328C6.62127 21.0705 12.2781 26.3621 19.1719 26.3621C23.0958 26.3621 26.619 24.6477 29.0335 21.9271C33.3435 24.6666 35.9483 29.0358 35.9483 33.7734V44.3111C35.9483 44.9746 35.4135 45.5093 34.75 45.5093H3.59483C2.93132 45.5093 2.39655 44.9746 2.39655 44.3111V33.7734C2.39655 30.1121 3.94234 26.6575 6.70359 23.9783C7.17855 23.5175 7.18999 22.7589 6.72915 22.2839C6.26831 21.809 5.50969 21.7975 5.03472 22.2584C1.82038 25.3771 0 29.4454 0 33.7734V44.3111C0 46.2981 1.60774 47.9059 3.59483 47.9059H34.75C36.7371 47.9059 38.3448 46.2981 38.3448 44.3111V33.7734C38.3448 28.2337 35.3525 23.1638 30.4581 19.9938ZM8.44362 14.2889C8.99825 19.7244 13.5894 23.9655 19.1719 23.9655C25.1285 23.9655 29.9564 19.137 29.9564 13.181C29.9564 7.22355 25.1294 2.39656 19.1719 2.39656C13.6501 2.39656 9.09953 6.54331 8.46343 11.8935C16.1422 11.689 18.7581 10.6713 22.1967 7.23268C22.6647 6.76473 23.4234 6.76473 23.8914 7.23268C24.3593 7.70064 24.3593 8.45934 23.8914 8.9273C19.9339 12.8848 16.8023 14.0634 8.44362 14.2889Z" fill="white"/>
</svg>
